<?xml version="1.0" encoding="UTF-8"?>
<svg id="Layer_1" xmlns="http://www.w3.org/2000/svg" version="1.1" viewBox="0 0 412 343">
  <!-- Generator: Adobe Illustrator 30.1.0, SVG Export Plug-In . SVG Version: 2.1.1 Build 136)  -->
  <defs>
    <style>
      .st0 {
        fill: #040605;
      }

      .st1 {
        fill: #982407;
      }

      .st2 {
        fill: #787878;
      }
    </style>
  </defs>
  <path class="st1" d="M287.64,207.95H0L236.35,24.05l51.3,183.9Z"/>
  <path class="st0" d="M412,207.95H103.29L368.03,0l43.97,207.95Z"/>
  <path class="st1" d="M5.32,295.2v-61.49h19.45l12.71,29.92,13.21-29.92h18.78v61.49h-14.21v-39.31l-11.22,25.35h-13.3l-11.22-25.51v39.47H5.32ZM95.61,250.32c2.88,0,5.21.47,6.98,1.41,1.83.94,3.18,1.91,4.07,2.91.94.94,1.47,1.52,1.58,1.74h.67v-5.24h14.21v44.04h-14.21v-5.24h-.67c-.11.22-.64.83-1.58,1.83-.89,1-2.24,1.97-4.07,2.91-1.77.89-4.1,1.33-6.98,1.33-3.21,0-6.01-.64-8.39-1.91-2.38-1.33-4.38-3.07-5.98-5.23-1.61-2.22-2.8-4.68-3.57-7.4-.78-2.71-1.16-5.49-1.16-8.31s.39-5.6,1.16-8.31c.78-2.72,1.97-5.15,3.57-7.31,1.61-2.22,3.6-3.96,5.98-5.24,2.38-1.33,5.18-1.99,8.39-1.99ZM100.1,261.71c-2.05,0-3.77.58-5.15,1.74-1.39,1.11-2.41,2.55-3.07,4.32-.66,1.72-1,3.52-1,5.4s.33,3.71,1,5.48c.66,1.72,1.69,3.16,3.07,4.32,1.39,1.11,3.1,1.66,5.15,1.66s3.74-.55,5.07-1.66c1.39-1.16,2.41-2.6,3.08-4.32.72-1.77,1.08-3.6,1.08-5.48s-.36-3.68-1.08-5.4c-.67-1.77-1.69-3.21-3.08-4.32-1.33-1.16-3.02-1.74-5.07-1.74ZM131.6,295.2v-63.16h14.21v36.23l13.55-17.12h15.79l-16.45,20.11,17.2,23.93h-16.37l-13.71-19.28v19.28h-14.21ZM199.5,296.03c-3.93,0-7.34-.64-10.22-1.91-2.88-1.33-5.29-3.07-7.23-5.23-1.88-2.22-3.3-4.68-4.24-7.4-.89-2.71-1.33-5.51-1.33-8.39s.44-5.51,1.33-8.23c.89-2.72,2.24-5.15,4.07-7.31,1.83-2.22,4.15-3.96,6.98-5.24,2.88-1.33,6.29-1.99,10.22-1.99,4.21,0,7.89.91,11.05,2.74,3.21,1.77,5.71,4.4,7.48,7.9,1.83,3.43,2.74,7.62,2.74,12.55v3.32h-29.58c.17,2.27.97,4.27,2.41,5.98,1.5,1.66,3.6,2.49,6.32,2.49,2.05,0,3.6-.36,4.65-1.08,1.11-.78,1.86-1.55,2.24-2.33.39-.77.58-1.16.58-1.16h13.05s-.14.53-.41,1.58c-.28,1-.8,2.27-1.58,3.82-.78,1.5-1.91,3.02-3.41,4.57-1.5,1.5-3.49,2.77-5.98,3.82-2.44,1-5.49,1.49-9.14,1.49ZM190.69,268.6h16.04c-.11-2.6-.91-4.57-2.41-5.9-1.44-1.33-3.27-1.99-5.48-1.99s-4.02.66-5.57,1.99c-1.5,1.33-2.35,3.3-2.58,5.9Z"/>
  <path class="st0" d="M227.36,295.2v-61.49h30c3.99,0,7.34.69,10.05,2.08,2.77,1.33,4.85,3.16,6.23,5.48,1.44,2.27,2.16,4.79,2.16,7.56,0,2.6-.47,4.79-1.41,6.57-.94,1.77-2.13,3.21-3.57,4.32-1.44,1.11-2.91,1.86-4.4,2.24v.75c1.55.33,3.24,1.05,5.07,2.16,1.88,1.11,3.49,2.71,4.82,4.82,1.39,2.05,2.08,4.71,2.08,7.98,0,2.94-.69,5.73-2.08,8.39-1.33,2.66-3.49,4.85-6.48,6.57-2.99,1.72-6.92,2.58-11.8,2.58h-30.66ZM254.62,245.67h-12.88v12.55h12.88c2.49,0,4.32-.58,5.48-1.74,1.22-1.22,1.83-2.74,1.83-4.57s-.61-3.24-1.83-4.4c-1.16-1.22-2.99-1.83-5.48-1.83ZM255.7,269.02h-13.96v14.21h13.96c2.82,0,4.9-.67,6.23-1.99,1.33-1.39,1.99-3.13,1.99-5.24,0-1.99-.67-3.66-1.99-4.99-1.33-1.33-3.41-1.99-6.23-1.99ZM307.77,296.03c-4.99,0-9.22-1.05-12.71-3.16-3.49-2.11-6.18-4.9-8.06-8.39-1.83-3.49-2.74-7.26-2.74-11.3s.91-7.81,2.74-11.3c1.88-3.49,4.57-6.29,8.06-8.39,3.49-2.11,7.73-3.16,12.71-3.16s9.31,1.05,12.8,3.16c3.49,2.1,6.15,4.9,7.98,8.39,1.88,3.49,2.83,7.26,2.83,11.3s-.94,7.81-2.83,11.3c-1.83,3.49-4.49,6.29-7.98,8.39-3.49,2.11-7.76,3.16-12.8,3.16ZM307.77,284.56c2.94,0,5.21-1.11,6.82-3.32,1.66-2.27,2.49-4.96,2.49-8.06s-.83-5.76-2.49-7.98c-1.61-2.27-3.88-3.41-6.82-3.41s-5.15,1.14-6.81,3.41c-1.66,2.22-2.49,4.88-2.49,7.98s.83,5.79,2.49,8.06c1.66,2.22,3.93,3.32,6.81,3.32ZM338.38,295.2v-63.16h14.21v63.16h-14.21ZM378.68,296.03c-3.21,0-6.01-.64-8.39-1.91-2.38-1.33-4.38-3.07-5.98-5.23-1.61-2.22-2.8-4.68-3.57-7.4-.77-2.71-1.16-5.49-1.16-8.31s.39-5.6,1.16-8.31c.78-2.72,1.97-5.15,3.57-7.31,1.61-2.22,3.6-3.96,5.98-5.24,2.38-1.33,5.18-1.99,8.39-1.99,2.88,0,5.21.47,6.98,1.41,1.83.94,3.19,1.91,4.07,2.91.94.94,1.47,1.52,1.58,1.74h.67v-24.35h14.21v63.16h-14.21v-5.24h-.67c-.11.22-.64.83-1.58,1.83-.89,1-2.24,1.97-4.07,2.91-1.77.89-4.1,1.33-6.98,1.33ZM383.17,284.64c2.05,0,3.74-.55,5.07-1.66,1.39-1.16,2.41-2.6,3.07-4.32.72-1.77,1.08-3.6,1.08-5.48s-.36-3.68-1.08-5.4c-.67-1.77-1.69-3.21-3.07-4.32-1.33-1.16-3.02-1.74-5.07-1.74s-3.77.58-5.15,1.74c-1.39,1.11-2.41,2.55-3.08,4.32-.66,1.72-1,3.52-1,5.4s.33,3.71,1,5.48c.67,1.72,1.69,3.16,3.08,4.32,1.38,1.11,3.1,1.66,5.15,1.66Z"/>
  <path class="st2" d="M11.12,342.85c-1.45,0-2.69-.18-3.73-.54-1.02-.38-1.86-.87-2.54-1.46-.68-.61-1.22-1.24-1.63-1.9-.41-.66-.71-1.28-.92-1.86-.2-.61-.34-1.1-.41-1.46-.05-.38-.07-.58-.07-.58h3.39s.03.16.1.47c.07.32.2.71.41,1.19.23.47.55.96.98,1.46.43.48,1.01.87,1.73,1.19.72.32,1.64.48,2.75.48,1.67,0,2.99-.39,3.97-1.19.97-.81,1.46-1.86,1.46-3.15,0-1.11-.37-1.97-1.12-2.58-.72-.61-1.76-1.08-3.12-1.42l-3.32-.81c-1.18-.29-2.27-.7-3.29-1.22-.99-.54-1.8-1.24-2.41-2.1-.59-.88-.88-1.98-.88-3.29,0-1.47.36-2.72,1.08-3.76.72-1.04,1.71-1.83,2.95-2.37,1.24-.57,2.66-.85,4.24-.85s2.81.24,3.83.71c1.02.47,1.83,1.06,2.44,1.76.61.68,1.06,1.37,1.36,2.07.29.68.49,1.25.58,1.73.09.48.14.71.14.71h-3.25s-.05-.2-.14-.61c-.09-.41-.31-.87-.64-1.39-.34-.54-.86-1.02-1.56-1.42-.7-.41-1.65-.61-2.85-.61-1.63,0-2.86.38-3.69,1.15-.81.77-1.22,1.65-1.22,2.64,0,.9.33,1.64.98,2.2.66.54,1.56.96,2.71,1.25l3.59.88c1.29.32,2.45.78,3.49,1.39,1.04.59,1.86,1.36,2.47,2.3.61.93.92,2.07.92,3.42s-.34,2.61-1.02,3.76c-.66,1.15-1.64,2.08-2.95,2.78-1.29.68-2.89,1.02-4.81,1.02ZM61.43,342.85c-1.99,0-3.74-.36-5.25-1.08-1.51-.75-2.78-1.73-3.8-2.95-1.02-1.24-1.79-2.63-2.3-4.17-.52-1.54-.78-3.11-.78-4.71s.26-3.16.78-4.68c.52-1.54,1.29-2.91,2.3-4.14,1.02-1.22,2.28-2.19,3.8-2.92,1.51-.74,3.27-1.12,5.25-1.12s3.74.37,5.25,1.12c1.51.72,2.78,1.7,3.8,2.92,1.02,1.22,1.79,2.6,2.3,4.14.52,1.51.78,3.07.78,4.68s-.26,3.18-.78,4.71c-.52,1.54-1.29,2.93-2.3,4.17-1.02,1.22-2.28,2.2-3.8,2.95-1.51.72-3.27,1.08-5.25,1.08ZM61.43,339.76c1.42,0,2.68-.27,3.76-.81,1.08-.54,1.99-1.28,2.71-2.2.75-.93,1.31-1.98,1.69-3.15.38-1.17.58-2.39.58-3.66s-.19-2.44-.58-3.59c-.38-1.18-.95-2.23-1.69-3.15-.72-.93-1.63-1.66-2.71-2.2-1.08-.54-2.34-.81-3.76-.81s-2.68.27-3.76.81c-1.08.54-2,1.28-2.75,2.2-.72.93-1.28,1.98-1.66,3.15-.38,1.15-.58,2.35-.58,3.59s.19,2.49.58,3.66c.38,1.17.94,2.23,1.66,3.15.75.93,1.66,1.66,2.75,2.2,1.08.54,2.34.81,3.76.81ZM103.57,342.51v-25.08h3.32v22.17h12.92v2.92h-16.24ZM159.71,342.85c-1.97,0-3.66-.37-5.08-1.12-1.42-.77-2.53-1.84-3.32-3.22-.77-1.4-1.15-3.05-1.15-4.95v-16.13h3.32v16.13c0,1.74.51,3.2,1.53,4.37,1.04,1.18,2.61,1.76,4.71,1.76s3.69-.59,4.71-1.76c1.04-1.17,1.56-2.63,1.56-4.37v-16.13h3.32v16.13c0,1.9-.4,3.55-1.19,4.95-.77,1.38-1.86,2.45-3.29,3.22-1.42.75-3.13,1.12-5.12,1.12ZM206.77,342.51v-22.17h-7.83v-2.92h18.98v2.92h-7.83v22.17h-3.32ZM247.6,342.51v-25.08h3.32v25.08h-3.32ZM293.05,342.85c-1.99,0-3.74-.36-5.25-1.08-1.51-.75-2.78-1.73-3.8-2.95-1.02-1.24-1.79-2.63-2.3-4.17-.52-1.54-.78-3.11-.78-4.71s.26-3.16.78-4.68c.52-1.54,1.29-2.91,2.3-4.14,1.02-1.22,2.28-2.19,3.8-2.92,1.51-.74,3.27-1.12,5.25-1.12s3.74.37,5.25,1.12c1.51.72,2.78,1.7,3.8,2.92,1.02,1.22,1.79,2.6,2.3,4.14.52,1.51.78,3.07.78,4.68s-.26,3.18-.78,4.71c-.52,1.54-1.29,2.93-2.3,4.17-1.02,1.22-2.28,2.2-3.8,2.95-1.51.72-3.26,1.08-5.25,1.08ZM293.05,339.76c1.42,0,2.68-.27,3.76-.81,1.08-.54,1.99-1.28,2.71-2.2.75-.93,1.31-1.98,1.7-3.15s.58-2.39.58-3.66-.19-2.44-.58-3.59c-.38-1.18-.95-2.23-1.7-3.15-.72-.93-1.63-1.66-2.71-2.2-1.08-.54-2.34-.81-3.76-.81s-2.68.27-3.76.81c-1.08.54-2,1.28-2.75,2.2-.72.93-1.28,1.98-1.66,3.15-.38,1.15-.58,2.35-.58,3.59s.19,2.49.58,3.66c.38,1.17.94,2.23,1.66,3.15.75.93,1.66,1.66,2.75,2.2,1.08.54,2.34.81,3.76.81ZM335.18,342.51v-25.08h2.98l13.08,19.08v-19.08h3.32v25.08h-2.98l-13.08-19.05v19.05h-3.32ZM393.84,342.85c-1.45,0-2.69-.18-3.73-.54-1.02-.38-1.86-.87-2.54-1.46-.68-.61-1.22-1.24-1.63-1.9-.41-.66-.71-1.28-.92-1.86-.2-.61-.34-1.1-.41-1.46-.04-.38-.07-.58-.07-.58h3.39s.03.16.1.47c.07.32.2.71.41,1.19.23.47.55.96.98,1.46.43.48,1,.87,1.73,1.19.72.32,1.64.48,2.75.48,1.67,0,2.99-.39,3.97-1.19.97-.81,1.46-1.86,1.46-3.15,0-1.11-.37-1.97-1.12-2.58-.72-.61-1.76-1.08-3.12-1.42l-3.32-.81c-1.18-.29-2.27-.7-3.29-1.22-.99-.54-1.8-1.24-2.41-2.1-.59-.88-.88-1.98-.88-3.29,0-1.47.36-2.72,1.08-3.76.72-1.04,1.71-1.83,2.95-2.37,1.24-.57,2.66-.85,4.24-.85s2.81.24,3.83.71c1.02.47,1.83,1.06,2.44,1.76.61.68,1.06,1.37,1.36,2.07.29.68.49,1.25.58,1.73.09.48.14.71.14.71h-3.25s-.04-.2-.14-.61c-.09-.41-.31-.87-.64-1.39-.34-.54-.86-1.02-1.56-1.42-.7-.41-1.65-.61-2.85-.61-1.63,0-2.86.38-3.69,1.15-.81.77-1.22,1.65-1.22,2.64,0,.9.33,1.64.98,2.2.65.54,1.56.96,2.71,1.25l3.59.88c1.29.32,2.45.78,3.49,1.39,1.04.59,1.86,1.36,2.47,2.3.61.93.92,2.07.92,3.42s-.34,2.61-1.02,3.76c-.65,1.15-1.64,2.08-2.95,2.78-1.29.68-2.89,1.02-4.81,1.02Z"/>
</svg>